<svg version="1.1" xmlns="http://www.w3.org/2000/svg" xmlns:xlink="http://www.w3.org/1999/xlink" width="24" height="24" viewBox="0,0,24,24">
	<desc>find_in_page icon - Licensed under Apache License v2.0 (http://www.apache.org/licenses/LICENSE-2.0) - Created with Iconfu.com - Derivative work of Material icons (Copyright Google Inc.)</desc>
	<defs>
		<linearGradient x1="9.24" y1="10.81" x2="35.87" y2="37.44" id="color-AEnFQxLR" gradientUnits="userSpaceOnUse">
			<stop offset="0" stop-color="#ffffff"/>
			<stop offset="0.48" stop-color="#000000"/>
		</linearGradient>
		<linearGradient x1="0" y1="0" x2="24" y2="24" gradientUnits="userSpaceOnUse" id="color-RODjVnry">
			<stop offset="0" stop-color="#a63100"/>
			<stop offset="1" stop-color="#790000"/>
		</linearGradient>
		<linearGradient x1="0" y1="0" x2="24" y2="24" gradientUnits="userSpaceOnUse" id="color-RUpNFhvx">
			<stop offset="0" stop-color="#ff8a59"/>
			<stop offset="1" stop-color="#d35726"/>
		</linearGradient>
		<mask id="mask-PpcCFG3a">
			<rect fill="url(#color-AEnFQxLR)" x="7.18" y="9.4" width="16.7" height="14.59"/>
		</mask>
	</defs>
	<g fill="none" fill-rule="nonzero" style="mix-blend-mode: normal">
		<path d="M18.67,23.69c-4.44,0.42 -8.9,0.42 -13.33,0c-2.66,-0.25 -4.77,-2.36 -5.02,-5.02c-0.42,-4.44 -0.42,-8.9 0,-13.33c0.25,-2.66 2.36,-4.77 5.02,-5.02c4.44,-0.42 8.9,-0.42 13.33,0c2.66,0.25 4.77,2.36 5.02,5.02c0.42,4.44 0.42,8.9 0,13.33c-0.25,2.66 -2.36,4.77 -5.02,5.02z" fill="url(#color-RUpNFhvx)"/>
		<g fill="url(#color-RODjVnry)">
			<path d="M7.18,18.12c0.23,0.23 0.56,0.38 0.91,0.38h5.16l-3.55,-3.55c-0.59,-0.59 -0.95,-1.4 -0.95,-2.3c0,-1.79 1.46,-3.25 3.25,-3.25c0.9,0 1.71,0.36 2.3,0.95l2.9,2.9v-3.85l6.68,6.68c-0.05,0.86 -0.11,1.72 -0.19,2.58c-0.25,2.66 -2.36,4.77 -5.02,5.02c-1.87,0.17 -3.74,0.28 -5.61,0.3z" mask="url(#mask-PpcCFG3a)"/>
		</g>
		<path d="M14.71,14.44c0.34,-0.51 0.54,-1.12 0.54,-1.79c0,-1.79 -1.46,-3.25 -3.25,-3.25c-1.79,0 -3.25,1.46 -3.25,3.25c0,1.79 1.46,3.25 3.25,3.25c0.66,0 1.27,-0.2 1.79,-0.54l2.88,2.88c-0.22,0.16 -0.48,0.26 -0.77,0.26h-7.81c-0.71,0 -1.29,-0.59 -1.29,-1.3l0.01,-10.4c0,-0.71 0.58,-1.3 1.29,-1.3h5.2l3.9,3.9v7.53zM12,10.7c1.08,0 1.95,0.87 1.95,1.95c0,1.08 -0.87,1.95 -1.95,1.95c-1.08,0 -1.95,-0.87 -1.95,-1.95c0,-1.08 0.87,-1.95 1.95,-1.95z" fill="#ffffff"/>
	</g>
</svg>