<svg version="1.1" xmlns="http://www.w3.org/2000/svg" xmlns:xlink="http://www.w3.org/1999/xlink" width="24" height="24" viewBox="0,0,24,24">
	<desc>euro_symbol icon - Licensed under Apache License v2.0 (http://www.apache.org/licenses/LICENSE-2.0) - Created with Iconfu.com - Derivative work of Material icons (Copyright Google Inc.)</desc>
	<defs>
		<linearGradient x1="0" y1="0" x2="24" y2="24" gradientUnits="userSpaceOnUse" id="color-KzJOikMF">
			<stop offset="0" stop-color="#00119c"/>
			<stop offset="1" stop-color="#00004f"/>
		</linearGradient>
		<linearGradient x1="0" y1="0" x2="24" y2="24" gradientUnits="userSpaceOnUse" id="color-mvemTihE">
			<stop offset="0" stop-color="#1c71ff"/>
			<stop offset="1" stop-color="#003ecc"/>
		</linearGradient>
		<linearGradient x1="9.35" y1="8.15" x2="36.9" y2="35.7" id="color-Q1VfpK76" gradientUnits="userSpaceOnUse">
			<stop offset="0" stop-color="#ffffff"/>
			<stop offset="0.48" stop-color="#000000"/>
		</linearGradient>
		<mask id="mask-5nxB7p5I">
			<rect fill="url(#color-Q1VfpK76)" x="6.15" y="7.64" width="17.83" height="16.24"/>
		</mask>
	</defs>
	<g fill="none" fill-rule="nonzero" style="mix-blend-mode: normal">
		<path d="M18.67,23.69c-4.44,0.42 -8.9,0.42 -13.33,0c-2.66,-0.25 -4.77,-2.36 -5.02,-5.02c-0.42,-4.44 -0.42,-8.9 0,-13.33c0.25,-2.66 2.36,-4.77 5.02,-5.02c4.44,-0.42 8.9,-0.42 13.33,0c2.66,0.25 4.77,2.36 5.02,5.02c0.42,4.44 0.42,8.9 0,13.33c-0.25,2.66 -2.36,4.77 -5.02,5.02z" fill="url(#color-mvemTihE)"/>
		<g fill="url(#color-KzJOikMF)">
			<path d="M6.15,13.95h2.29l3.57,3.57c0.15,0.05 0.3,0.1 0.45,0.14l-6.31,-6.31h1.99l2.6,2.6h0.34l-1.3,-1.3c-0.03,-0.21 -0.05,-0.43 -0.05,-0.65c0,-0.22 0.02,-0.44 0.05,-0.65h1.73l-1.3,-1.3c0.7,-1.35 2.12,-2.27 3.74,-2.27c1.05,0 2.01,0.38 2.75,1.02l1.15,-1.15l6.13,6.13c-0.04,1.63 -0.14,3.27 -0.29,4.89c-0.25,2.66 -2.36,4.77 -5.02,5.02c-0.86,0.08 -1.72,0.15 -2.58,0.19z" mask="url(#mask-5nxB7p5I)"/>
		</g>
		<path d="M16.69,15.2l1.16,1.15c-1.03,0.93 -2.4,1.49 -3.9,1.49c-2.55,0 -4.71,-1.63 -5.51,-3.9h-2.29v-1.3h1.99c-0.03,-0.21 -0.04,-0.43 -0.04,-0.65c0,-0.22 0.01,-0.44 0.04,-0.65h-1.99v-1.3h2.29c0.81,-2.27 2.96,-3.9 5.51,-3.9c1.49,0 2.87,0.57 3.9,1.49l-1.15,1.15c-0.74,-0.64 -1.7,-1.02 -2.75,-1.02c-1.63,0 -3.04,0.92 -3.74,2.27h3.74v1.3h-4.17c-0.03,0.21 -0.05,0.43 -0.05,0.65c0,0.22 0.02,0.44 0.05,0.65h4.17v1.3h-3.74c0.7,1.35 2.11,2.27 3.74,2.27c1.05,0 2.01,-0.38 2.74,-1.02z" fill="#ffffff"/>
	</g>
</svg>