<svg version="1.1" xmlns="http://www.w3.org/2000/svg" xmlns:xlink="http://www.w3.org/1999/xlink" width="24" height="24" viewBox="0,0,24,24">
	<desc>forum icon - Licensed under Apache License v2.0 (http://www.apache.org/licenses/LICENSE-2.0) - Created with Iconfu.com - Derivative work of Material icons (Copyright Google Inc.)</desc>
	<defs>
		<linearGradient x1="0" y1="0" x2="24" y2="24" gradientUnits="userSpaceOnUse" id="color-4qGOqBVH">
			<stop offset="0" stop-color="#00a514"/>
			<stop offset="1" stop-color="#006600"/>
		</linearGradient>
		<linearGradient x1="10.44" y1="10.31" x2="37.77" y2="37.63" id="color-Gwbv7nN8" gradientUnits="userSpaceOnUse">
			<stop offset="0" stop-color="#ffffff"/>
			<stop offset="0.48" stop-color="#000000"/>
		</linearGradient>
		<linearGradient x1="0" y1="0" x2="24" y2="24" gradientUnits="userSpaceOnUse" id="color-INlyk7W1">
			<stop offset="0" stop-color="#1dfe6d"/>
			<stop offset="1" stop-color="#00cb3a"/>
		</linearGradient>
		<mask id="mask-NC4wNSF4">
			<rect fill="url(#color-Gwbv7nN8)" x="5.5" y="5.69" width="18.47" height="18.27"/>
		</mask>
	</defs>
	<g fill="none" fill-rule="nonzero" style="mix-blend-mode: normal">
		<path d="M18.67,23.69c-4.44,0.42 -8.9,0.42 -13.33,0c-2.66,-0.25 -4.77,-2.36 -5.02,-5.02c-0.42,-4.44 -0.42,-8.9 0,-13.33c0.25,-2.66 2.36,-4.77 5.02,-5.02c4.44,-0.42 8.9,-0.42 13.33,0c2.66,0.25 4.77,2.36 5.02,5.02c0.42,4.44 0.42,8.9 0,13.33c-0.25,2.66 -2.36,4.77 -5.02,5.02z" fill="url(#color-INlyk7W1)"/>
		<g fill="url(#color-4qGOqBVH)">
			<path d="M5.5,15.25l2.6,-2.6h6.5c0.36,0 0.65,-0.29 0.65,-0.65v-5.85c0,-0.18 -0.07,-0.34 -0.19,-0.46l3.44,3.44v-0.38c0,-0.18 -0.07,-0.34 -0.19,-0.46l5.66,5.66c-0.04,1.57 -0.14,3.14 -0.28,4.71c-0.25,2.66 -2.36,4.77 -5.02,5.02c-1.48,0.14 -2.97,0.23 -4.45,0.28z" mask="url(#mask-NC4wNSF4)"/>
		</g>
		<path d="M18.5,8.75v9.75l-2.6,-2.6h-7.15c-0.36,0 -0.65,-0.29 -0.65,-0.65v-1.3h8.45v-5.85h1.3c0.36,0 0.65,0.29 0.65,0.65zM14.6,12.65h-6.5l-2.6,2.6v-9.1c0,-0.36 0.29,-0.65 0.65,-0.65h8.45c0.36,0 0.65,0.29 0.65,0.65v5.85c0,0.36 -0.29,0.65 -0.65,0.65z" fill="#ffffff"/>
	</g>
</svg>