<svg version="1.1" xmlns="http://www.w3.org/2000/svg" xmlns:xlink="http://www.w3.org/1999/xlink" width="24" height="24" viewBox="0,0,24,24">
	<desc>extension icon - Licensed under Apache License v2.0 (http://www.apache.org/licenses/LICENSE-2.0) - Created with Iconfu.com - Derivative work of Material icons (Copyright Google Inc.)</desc>
	<defs>
		<linearGradient x1="0" y1="0" x2="24" y2="24" gradientUnits="userSpaceOnUse" id="color-cnoZ0QyX">
			<stop offset="0" stop-color="#a68963"/>
			<stop offset="1" stop-color="#846a00"/>
		</linearGradient>
		<linearGradient x1="0" y1="0" x2="24" y2="24" gradientUnits="userSpaceOnUse" id="color-i8yE3ecJ">
			<stop offset="0" stop-color="#ffe2bc"/>
			<stop offset="1" stop-color="#ddc300"/>
		</linearGradient>
		<linearGradient x1="7.39" y1="9.66" x2="35.37" y2="37.64" id="color-TqaRyKBa" gradientUnits="userSpaceOnUse">
			<stop offset="0" stop-color="#ffffff"/>
			<stop offset="0.48" stop-color="#000000"/>
		</linearGradient>
		<mask id="mask-wERxbCNX">
			<rect fill="url(#color-TqaRyKBa)" x="5.51" y="5.65" width="18.39" height="18.35"/>
		</mask>
	</defs>
	<g fill="none" fill-rule="nonzero" style="mix-blend-mode: normal">
		<path d="M18.67,23.69c-4.44,0.42 -8.9,0.42 -13.33,0c-2.66,-0.25 -4.77,-2.36 -5.02,-5.02c-0.42,-4.44 -0.42,-8.9 0,-13.33c0.25,-2.66 2.36,-4.77 5.02,-5.02c4.44,-0.42 8.9,-0.42 13.33,0c2.66,0.25 4.77,2.36 5.02,5.02c0.42,4.44 0.42,8.9 0,13.33c-0.25,2.66 -2.36,4.77 -5.02,5.02z" fill="url(#color-i8yE3ecJ)"/>
		<g fill="url(#color-cnoZ0QyX)">
			<path d="M5.51,11.54h0.97c0.48,0 0.92,0.2 1.24,0.51l6.77,6.77h0.77c0.71,0 1.3,-0.59 1.3,-1.3v-2.6h0.98c0.62,0 1.15,-0.34 1.43,-0.85l-6.3,-6.3v-0.97c0,-0.45 -0.18,-0.85 -0.48,-1.15l4.38,4.38v-0.95c0,-0.36 -0.15,-0.68 -0.38,-0.92l7.73,7.73c-0.05,0.93 -0.12,1.86 -0.21,2.78c-0.25,2.66 -2.36,4.77 -5.02,5.02c-2.4,0.23 -4.82,0.33 -7.23,0.31l-5.55,-5.55c0.24,0.24 0.56,0.38 0.92,0.38h2.47v-0.98c0,-0.69 0.4,-1.28 0.97,-1.57z" mask="url(#mask-wERxbCNX)"/>
		</g>
		<path d="M19.15,13.3c0,0.9 -0.73,1.63 -1.62,1.63h-0.98v2.6c0,0.71 -0.59,1.3 -1.3,1.3h-2.47v-0.98c0,-0.97 -0.79,-1.76 -1.76,-1.76c-0.97,0 -1.75,0.79 -1.75,1.76v0.98h-2.47c-0.71,0 -1.3,-0.59 -1.3,-1.3v-2.47h0.97c0.97,0 1.76,-0.79 1.76,-1.75c0,-0.97 -0.79,-1.76 -1.76,-1.76h-0.97v-2.47c0,-0.71 0.58,-1.3 1.29,-1.3h2.6v-0.97c0,-0.9 0.73,-1.62 1.63,-1.62c0.9,0 1.63,0.73 1.63,1.62v0.97h2.6c0.71,0 1.3,0.59 1.3,1.3v2.6h0.98c0.9,0 1.62,0.73 1.62,1.63z" fill="#ffffff"/>
	</g>
</svg>