<svg version="1.1" xmlns="http://www.w3.org/2000/svg" xmlns:xlink="http://www.w3.org/1999/xlink" width="24" height="24" viewBox="0,0,24,24">
	<desc>web icon - Licensed under Apache License v2.0 (http://www.apache.org/licenses/LICENSE-2.0) - Created with Iconfu.com - Derivative work of Material icons (Copyright Google Inc.)</desc>
	<defs>
		<linearGradient x1="8.43" y1="8.43" x2="36.67" y2="36.67" id="color-ESDxZZlW" gradientUnits="userSpaceOnUse">
			<stop offset="0" stop-color="#ffffff"/>
			<stop offset="0.48" stop-color="#000000"/>
		</linearGradient>
		<linearGradient x1="0" y1="0" x2="24" y2="24" gradientUnits="userSpaceOnUse" id="color-u5QjQ7z5">
			<stop offset="0" stop-color="#59aaff"/>
			<stop offset="1" stop-color="#2677d3"/>
		</linearGradient>
		<linearGradient x1="0" y1="0" x2="24" y2="24" gradientUnits="userSpaceOnUse" id="color-xOX4Jj7d">
			<stop offset="0" stop-color="#0051a6"/>
			<stop offset="1" stop-color="#001973"/>
		</linearGradient>
		<mask id="mask-wFkpqwIv">
			<rect fill="url(#color-ESDxZZlW)" x="5.88" y="7.18" width="18.11" height="16.81"/>
		</mask>
	</defs>
	<g fill="none" fill-rule="nonzero" style="mix-blend-mode: normal">
		<path d="M18.67,23.69c-4.44,0.42 -8.9,0.42 -13.33,0c-2.66,-0.25 -4.77,-2.36 -5.02,-5.02c-0.42,-4.44 -0.42,-8.9 0,-13.33c0.25,-2.66 2.36,-4.77 5.02,-5.02c4.44,-0.42 8.9,-0.42 13.33,0c2.66,0.25 4.77,2.36 5.02,5.02c0.42,4.44 0.42,8.9 0,13.33c-0.25,2.66 -2.36,4.77 -5.02,5.02z" fill="url(#color-u5QjQ7z5)"/>
		<g fill="url(#color-xOX4Jj7d)">
			<path d="M6.8,12.65v-2.6h7.15l0.65,0.65v-0.65h2.6l1.3,1.3v-3.25c0,-0.36 -0.15,-0.68 -0.38,-0.92l5.87,5.87c-0.03,1.87 -0.13,3.74 -0.3,5.61c-0.25,2.66 -2.36,4.77 -5.02,5.02c-1.87,0.17 -3.74,0.28 -5.61,0.3l-7.17,-7.17c0.24,0.24 0.56,0.38 0.92,0.38h1.3l-1.3,-1.3v-2.6h0.65z" mask="url(#mask-wFkpqwIv)"/>
		</g>
		<path d="M18.5,8.1v7.8c0,0.71 -0.59,1.3 -1.3,1.3h-10.4c-0.71,0 -1.3,-0.59 -1.3,-1.3l0.01,-7.8c0,-0.71 0.58,-1.3 1.29,-1.3h10.4c0.71,0 1.3,0.59 1.3,1.3zM13.95,13.3h-7.15v2.6h7.15zM13.95,10.05h-7.15v2.6h7.15zM17.2,10.05h-2.6v5.85h2.6z" fill="#ffffff"/>
	</g>
</svg>